<svg width="159" height="63" viewBox="0 0 159 63" fill="none" xmlns="http://www.w3.org/2000/svg">
<path d="M126.678 48.2983L126.654 48.3523L126.597 48.4775L126.54 48.6019L126.467 48.7637L126.395 48.9256L126.338 49.0508L126.282 49.1752L125.753 50.3465L123.782 54.7136V51.0469L124.361 49.7631L124.89 48.5927L124.946 48.4675L125.002 48.3422L125.076 48.1813L125.149 48.0194L125.205 47.8942L125.261 47.7689L125.302 47.6784C125.473 47.298 125.92 47.1297 126.3 47.3007C126.679 47.4726 126.849 47.9188 126.678 48.2983Z" fill="white"/>
<path d="M142.607 31.4183C142.607 31.4183 142.607 31.4174 142.608 31.4165L142.607 31.4183Z" fill="black"/>
<path d="M148.319 21.8896L146.824 24.5275L146.572 24.9719L146.324 25.4099L146.039 25.8708L145.756 26.327L142.903 30.941L142.901 30.9447L142.608 31.4165C142.739 30.9949 142.451 30.4527 141.853 29.8428C141.826 29.8163 141.799 29.7889 141.771 29.7614C141.717 29.7066 141.659 29.6517 141.599 29.5969C141.51 29.5146 141.415 29.4304 141.315 29.3445C141.315 29.3436 141.314 29.3445 141.314 29.3445C141.215 29.2595 141.109 29.1744 141.001 29.0866C141 29.0857 141 29.0866 141 29.0866C140.927 29.0281 140.852 28.9696 140.775 28.912C140.775 28.9111 140.774 28.912 140.774 28.912C140.697 28.8526 140.618 28.794 140.537 28.7355C140.537 28.7346 140.536 28.7355 140.536 28.7355C140.456 28.6752 140.372 28.6166 140.288 28.5572C140.202 28.4969 140.115 28.4374 140.027 28.3771C139.938 28.3167 139.848 28.2564 139.757 28.196C137.317 26.5931 133.686 24.8714 130.281 23.7256C129.96 23.6177 129.641 23.5144 129.325 23.4175C129.197 23.3791 129.071 23.3407 128.945 23.3032C128.696 23.2291 128.448 23.1587 128.203 23.0938C128.202 23.0938 128.201 23.0929 128.201 23.0929C128.079 23.06 127.958 23.028 127.837 22.9978C127.836 22.9978 127.835 22.9969 127.835 22.9969C125.693 22.4492 123.807 22.2352 122.597 22.5607C122.544 22.4665 122.489 22.3733 122.431 22.2818H122.43C122.363 22.1712 122.291 22.0615 122.216 21.9536C122.139 21.8384 122.058 21.7259 121.975 21.6153L123.63 14.7272L123.779 14.1091L123.872 13.7196L123.962 13.3474L124.294 11.9658C138.035 13.7086 148.32 21.8896 148.32 21.8896H148.319Z" fill="black"/>
<path d="M137.932 43.8781C137.932 43.8781 141.133 46.6715 142.102 51.5899C143.07 56.5084 144.617 60.5134 144.161 61.3573C143.704 62.2013 143.452 60.6816 140.72 61.7395C136.253 63.4695 135.969 59.5194 132.19 59.4801C129.422 59.4508 126.884 58.6133 126.322 56.4416C125.76 54.27 128.93 50.1891 129.171 45.5176C129.413 40.846 137.932 43.8781 137.932 43.8781Z" fill="#E8B452"/>
<path d="M157.474 29.2071L156.847 29.1733L157.205 22.4974L134.37 1.19333L116.935 9.70162L123.969 13.7761L123.655 14.3201L115.599 9.65407L134.483 0.438965L157.849 22.2377L157.474 29.2071Z" fill="white"/>
<path d="M157.82 29.592L156.463 29.5189L156.832 22.6482L134.305 1.63217L117.714 9.72898L124.47 13.6425L123.788 14.8193L114.823 9.62566L134.55 0L158.224 22.0868L157.82 29.592Z" fill="white"/>
<path d="M145.639 25.9803L146.091 25.1885L146.157 25.0824L157.443 22.0942L157.607 22.7014L145.639 25.9803Z" fill="white"/>
<path d="M144.883 26.5663L145.846 24.8894L145.922 24.7659L157.701 21.647L158.054 22.9573L144.883 26.5663Z" fill="white"/>
<path d="M156.462 29.4346L154.17 35.8901L158.927 36.2513L157.855 29.4556L156.462 29.4346Z" fill="#E8B452"/>
<path d="M148.515 21.644C148.489 21.6229 145.872 19.5537 141.606 17.3034C137.67 15.2269 131.478 12.5605 124.333 11.6544L124.054 11.6196L123.678 13.1841L123.588 13.5554L123.435 14.1927L123.346 14.563L121.727 21.3002C121.811 21.4044 121.894 21.5086 121.974 21.6156C122.058 21.7263 122.138 21.8387 122.216 21.9539L124.031 14.403L124.245 13.5124L124.533 12.3146C131.46 13.2408 137.463 15.8294 141.299 17.852C144.828 19.7128 147.212 21.4446 147.912 21.9722L146.399 24.6404L146.054 25.2503L145.312 26.4499L142.778 30.5454C142.343 29.6768 141.1 28.6197 139.062 27.3899C136.236 25.6837 132.424 24.0113 129.114 23.0256C127.323 22.4916 125.19 22.0106 123.542 22.1039C123.138 22.1267 122.763 22.1834 122.431 22.2822C122.488 22.3736 122.543 22.4669 122.596 22.5611C122.596 22.5611 122.598 22.562 122.597 22.5629C122.651 22.6553 122.702 22.7485 122.752 22.8436C124.009 22.5373 126.168 22.8034 128.935 23.6282C132.197 24.6001 135.953 26.2479 138.738 27.9276C141.615 29.6649 142.459 30.8435 142.308 31.3245L141.554 33.7183L142.114 32.814L142.875 31.5842L146.202 26.2058L146.484 25.7495L146.591 25.5758L146.997 24.8598L147.249 24.4154L148.725 21.8104L148.515 21.644Z" fill="white"/>
<path d="M148.743 21.3571C148.716 21.3361 146.069 19.244 141.777 16.9791C137.814 14.8879 131.579 12.2042 124.379 11.2917L123.775 11.2148L123.348 12.9924L123.258 13.3636L123.105 14.001L123.016 14.3713L121.431 20.9621C121.533 21.0718 121.63 21.1843 121.726 21.2995C121.811 21.4038 121.894 21.508 121.974 21.615C122.058 21.7256 122.138 21.8381 122.216 21.9533C122.291 22.0612 122.362 22.1709 122.43 22.2816H122.431C122.488 22.373 122.543 22.4663 122.596 22.5604C122.596 22.5604 122.598 22.5614 122.597 22.5623C122.651 22.6546 122.702 22.7479 122.752 22.843C122.812 22.9555 122.869 23.0698 122.923 23.185C123.965 22.9628 125.87 23.0963 128.83 23.9777C132.065 24.9415 135.79 26.5746 138.548 28.2406C141.513 30.0291 141.992 31.0431 141.959 31.2141L140.328 36.3941L141.197 34.9896L146.72 26.0634L146.903 25.7672L146.993 25.609L147.492 24.7284L147.743 24.284L149.197 21.7183L148.743 21.3571ZM124.811 12.7217C131.557 13.6782 137.395 16.2064 141.128 18.1751C144.289 19.8411 146.535 21.412 147.433 22.0722L145.739 25.0631L142.774 29.8581C142.151 29.0416 140.991 28.1263 139.251 27.0766C136.4 25.3548 132.555 23.6687 129.218 22.6747C127.102 22.0438 125.339 21.7256 123.969 21.7256C123.815 21.7256 123.665 21.7293 123.521 21.7375C123.194 21.7558 122.891 21.796 122.615 21.8564L124.811 12.7217Z" fill="white"/>
<path d="M142.9 30.9444L142.113 32.8134L141.197 34.9896L139.734 38.4615L139.681 38.5877L139.627 38.7138L139.558 38.8766L139.541 38.9187L123.782 32.2775V27.029C123.782 25.6538 123.474 24.3508 122.922 23.185C122.868 23.0697 122.812 22.9554 122.752 22.843C122.702 22.7479 122.651 22.6546 122.597 22.5623C123.487 22.3218 124.745 22.3748 126.202 22.6382C126.233 22.6436 126.265 22.6491 126.296 22.6546C126.518 22.6958 126.744 22.7424 126.974 22.7927C127.255 22.8539 127.543 22.9225 127.834 22.9966C127.834 22.9966 127.835 22.9975 127.836 22.9975C127.956 23.0277 128.077 23.0597 128.2 23.0926C128.2 23.0926 128.201 23.0935 128.202 23.0935C128.324 23.1264 128.447 23.1603 128.57 23.195H128.571C128.695 23.2298 128.819 23.2663 128.944 23.3029C129.07 23.3404 129.196 23.3788 129.324 23.4172C129.482 23.4666 129.641 23.516 129.8 23.5672C129.959 23.6193 130.119 23.6714 130.28 23.7254C133.685 24.8711 137.316 26.5928 139.756 28.1957C139.847 28.2561 139.937 28.3164 140.026 28.3768C140.114 28.4371 140.201 28.4966 140.287 28.5569C140.371 28.6164 140.454 28.6749 140.535 28.7352H140.536C140.617 28.7937 140.696 28.8523 140.773 28.9117H140.774C140.85 28.9693 140.925 29.0278 140.999 29.0863H140.999C141.081 29.1504 141.16 29.2153 141.237 29.2802C141.263 29.3012 141.288 29.3223 141.313 29.3442H141.314C141.414 29.4283 141.509 29.5124 141.598 29.5966C141.658 29.6514 141.715 29.7063 141.77 29.7612C141.798 29.7886 141.825 29.816 141.852 29.8425C141.946 29.9385 142.033 30.0336 142.111 30.126C142.163 30.1873 142.212 30.2476 142.257 30.307C142.28 30.3372 142.302 30.3674 142.322 30.3976C142.557 30.7322 142.667 31.0385 142.632 31.3019C142.627 31.3412 142.619 31.3787 142.607 31.4162L142.9 30.9444H142.9Z" fill="white"/>
<path d="M127.809 29.0382C128.399 29.0382 128.878 28.5596 128.878 27.9693C128.878 27.379 128.399 26.9004 127.809 26.9004C127.218 26.9004 126.74 27.379 126.74 27.9693C126.74 28.5596 127.218 29.0382 127.809 29.0382Z" fill="black"/>
<path d="M134.637 31.8019C135.227 31.8019 135.706 31.3233 135.706 30.733C135.706 30.1426 135.227 29.6641 134.637 29.6641C134.046 29.6641 133.568 30.1426 133.568 30.733C133.568 31.3233 134.046 31.8019 134.637 31.8019Z" fill="black"/>
<path d="M132.016 31.7137L131.986 31.7786C131.601 32.6583 130.576 33.0578 129.697 32.6729C128.819 32.2879 128.418 31.2638 128.802 30.3842L128.832 30.3184L132.016 31.7137Z" fill="black"/>
<path d="M145.852 46.5957C145.802 46.5985 145.751 46.5957 145.699 46.5884C143.354 46.2428 140.262 46.5911 140.23 46.5948C140.016 46.6195 139.799 46.55 139.638 46.4046L137.239 44.233C136.93 43.9532 136.907 43.4768 137.186 43.1677C137.466 42.8586 137.943 42.8349 138.252 43.1147L140.401 45.0614C141.31 44.9764 143.83 44.7889 145.92 45.0961C146.332 45.1565 146.616 45.5405 146.556 45.952C146.503 46.3123 146.203 46.5756 145.853 46.5948L145.852 46.5957Z" fill="white"/>
<path d="M139.802 40.8479C139.806 40.9649 139.791 41.0811 139.755 41.1926C139.731 41.2713 139.696 41.3472 139.654 41.4194L138.494 43.3359L138.082 44.0171L137.699 44.6499L133.795 51.1008C133.301 51.9174 132.435 52.4056 131.525 52.4569C131.11 52.4797 130.687 52.412 130.286 52.2447L127.739 51.1776L125.753 50.3465L124.361 49.7631L123.782 49.5208V33.4707L139.158 39.9088C139.243 39.9445 139.322 39.9911 139.393 40.046C139.43 40.0743 139.465 40.1054 139.498 40.1383C139.532 40.1731 139.563 40.2088 139.591 40.2472C139.632 40.3002 139.666 40.3569 139.696 40.4172C139.717 40.4602 139.735 40.505 139.75 40.5516C139.76 40.5782 139.767 40.6038 139.774 40.6303C139.791 40.7025 139.801 40.7748 139.802 40.8479Z" fill="white"/>
<path d="M139.971 39.9627L139.696 40.4172L138.12 43.0204L137.657 43.7858L137.334 44.3198L134.113 49.6433C133.47 50.7085 132.142 51.141 130.994 50.6601L128.336 49.5473L126.467 48.7636L125.076 48.1812L123.782 47.6389V32.271L139.558 38.8765L139.623 38.9039C140.038 39.0776 140.201 39.5778 139.971 39.9627Z" fill="black"/>
<path d="M140.337 39.2571C140.242 38.9663 140.026 38.7322 139.744 38.6143L139.68 38.5878L123.781 31.9302V32.6123L139.501 39.194C139.616 39.2425 139.701 39.3339 139.74 39.4528C139.778 39.5707 139.765 39.6951 139.701 39.8011L139.498 40.1385L137.812 42.9228L137.348 43.69L137.11 44.0832L133.844 49.4808C133.284 50.4052 132.111 50.7874 131.115 50.3704L128.435 49.2476L126.597 48.4777L125.204 47.8943L123.781 47.299V47.9803L124.945 48.4676L126.338 49.051L128.235 49.8456L130.872 50.9502C131.274 51.1175 131.697 51.1852 132.111 51.1614C133.021 51.1111 133.888 50.6228 134.382 49.8063L137.571 44.5349L137.956 43.8985L138.366 43.2209L139.801 40.8481L140.239 40.1248C140.396 39.8633 140.432 39.5469 140.337 39.2571Z" fill="white"/>
<path d="M139.87 39.4095C139.819 39.2522 139.707 39.1315 139.554 39.0675L123.781 32.463V32.761L139.448 39.3208C139.527 39.3537 139.583 39.4141 139.609 39.4945C139.636 39.575 139.627 39.6582 139.584 39.7295L139.392 40.0459L137.65 42.9262L137.213 43.6485L137.038 43.9384L133.727 49.41C133.202 50.276 132.102 50.6353 131.169 50.243L128.476 49.1156L126.653 48.3521L125.261 47.7687L123.781 47.1488V47.4469L125.148 48.0193L126.54 48.6017L128.392 49.378L131.062 50.4963C131.351 50.6179 131.654 50.6755 131.954 50.6755C132.752 50.6755 133.529 50.2659 133.961 49.5518L137.201 44.1972L137.483 43.7308L137.955 42.95L139.591 40.2471L139.819 39.8712C139.904 39.7304 139.922 39.5658 139.87 39.4095ZM139.87 39.4095C139.819 39.2522 139.707 39.1315 139.554 39.0675L123.781 32.463V32.761L139.448 39.3208C139.527 39.3537 139.583 39.4141 139.609 39.4945C139.636 39.575 139.627 39.6582 139.584 39.7295L139.392 40.0459L137.65 42.9262L137.213 43.6485L137.038 43.9384L133.727 49.41C133.202 50.276 132.102 50.6353 131.169 50.243L128.476 49.1156L126.653 48.3521L125.261 47.7687L123.781 47.1488V47.4469L125.148 48.0193L126.54 48.6017L128.392 49.378L131.062 50.4963C131.351 50.6179 131.654 50.6755 131.954 50.6755C132.752 50.6755 133.529 50.2659 133.961 49.5518L137.201 44.1972L137.483 43.7308L137.955 42.95L139.591 40.2471L139.819 39.8712C139.904 39.7304 139.922 39.5658 139.87 39.4095ZM139.87 39.4095C139.819 39.2522 139.707 39.1315 139.554 39.0675L123.781 32.463V32.761L139.448 39.3208C139.527 39.3537 139.583 39.4141 139.609 39.4945C139.636 39.575 139.627 39.6582 139.584 39.7295L139.392 40.0459L137.65 42.9262L137.213 43.6485L137.038 43.9384L133.727 49.41C133.202 50.276 132.102 50.6353 131.169 50.243L128.476 49.1156L126.653 48.3521L125.261 47.7687L123.781 47.1488V47.4469L125.148 48.0193L126.54 48.6017L128.392 49.378L131.062 50.4963C131.351 50.6179 131.654 50.6755 131.954 50.6755C132.752 50.6755 133.529 50.2659 133.961 49.5518L137.201 44.1972L137.483 43.7308L137.955 42.95L139.591 40.2471L139.819 39.8712C139.904 39.7304 139.922 39.5658 139.87 39.4095ZM140.468 39.2138C140.36 38.8855 140.116 38.6213 139.798 38.4878L139.733 38.4613L123.781 31.7817V32.0798L139.627 38.7136L139.691 38.7411C139.936 38.8435 140.124 39.0465 140.207 39.2988C140.289 39.5512 140.258 39.8264 140.122 40.0541L139.774 40.6302L138.263 43.1264L137.83 43.8424L137.468 44.4413L134.265 49.7346C134.035 50.1132 133.719 50.4241 133.347 50.6454C132.976 50.8666 132.55 51.0001 132.103 51.0248C131.695 51.0477 131.299 50.98 130.925 50.8228L128.28 49.7145L126.395 48.9254L125.002 48.342L123.781 47.8309V48.1281L124.889 48.5926L126.281 49.175L128.189 49.9742L130.819 51.076C131.179 51.2269 131.559 51.3037 131.949 51.3037C132.005 51.3037 132.062 51.3019 132.119 51.2982C133.104 51.2434 133.994 50.7121 134.499 49.8773L137.674 44.6288L138.058 43.9942L138.47 43.3139L139.755 41.1925L140.357 40.1958C140.534 39.8996 140.575 39.5421 140.468 39.2138ZM139.87 39.4095C139.819 39.2522 139.707 39.1315 139.554 39.0675L123.781 32.463V32.761L139.448 39.3208C139.527 39.3537 139.583 39.4141 139.609 39.4945C139.636 39.575 139.627 39.6582 139.584 39.7295L139.392 40.0459L137.65 42.9262L137.213 43.6485L137.038 43.9384L133.727 49.41C133.202 50.276 132.102 50.6353 131.169 50.243L128.476 49.1156L126.653 48.3521L125.261 47.7687L123.781 47.1488V47.4469L125.148 48.0193L126.54 48.6017L128.392 49.378L131.062 50.4963C131.351 50.6179 131.654 50.6755 131.954 50.6755C132.752 50.6755 133.529 50.2659 133.961 49.5518L137.201 44.1972L137.483 43.7308L137.955 42.95L139.591 40.2471L139.819 39.8712C139.904 39.7304 139.922 39.5658 139.87 39.4095ZM139.87 39.4095C139.819 39.2522 139.707 39.1315 139.554 39.0675L123.781 32.463V32.761L139.448 39.3208C139.527 39.3537 139.583 39.4141 139.609 39.4945C139.636 39.575 139.627 39.6582 139.584 39.7295L139.392 40.0459L137.65 42.9262L137.213 43.6485L137.038 43.9384L133.727 49.41C133.202 50.276 132.102 50.6353 131.169 50.243L128.476 49.1156L126.653 48.3521L125.261 47.7687L123.781 47.1488V47.4469L125.148 48.0193L126.54 48.6017L128.392 49.378L131.062 50.4963C131.351 50.6179 131.654 50.6755 131.954 50.6755C132.752 50.6755 133.529 50.2659 133.961 49.5518L137.201 44.1972L137.483 43.7308L137.955 42.95L139.591 40.2471L139.819 39.8712C139.904 39.7304 139.922 39.5658 139.87 39.4095Z" fill="white"/>
<path d="M120.196 46.4849H89.056C88.3884 46.4849 87.8472 47.0261 87.8472 47.6937V59.4078C87.8472 60.0754 88.3884 60.6166 89.056 60.6166H120.196C120.864 60.6166 121.405 60.0754 121.405 59.4078V47.6937C121.405 47.0261 120.864 46.4849 120.196 46.4849Z" fill="#F2BD6C"/>
<path d="M91.1787 58.1326V49.1123H93.1355V56.4173H97.5821V58.1326H91.1787Z" fill="black"/>
<path d="M106.92 58.1326V52.5549L104.849 56.6587H103.769L101.685 52.5549V58.1326H99.728V49.1123H101.849L104.302 53.9786L106.767 49.1123H108.888V58.1326H106.919H106.92Z" fill="black"/>
<path d="M117.351 51.6662C117.317 51.6241 117.222 51.5565 117.065 51.4632C116.908 51.3699 116.717 51.2703 116.493 51.1642C116.268 51.0581 116.021 50.9713 115.75 50.9036C115.478 50.836 115.208 50.8021 114.937 50.8021C114.547 50.8021 114.245 50.8734 114.029 51.017C113.813 51.1596 113.705 51.3663 113.705 51.6351C113.705 51.8537 113.779 52.0265 113.927 52.1527C114.076 52.2788 114.296 52.3877 114.589 52.4809C114.881 52.5733 115.239 52.6784 115.662 52.7964C116.246 52.9482 116.75 53.1283 117.174 53.3386C117.597 53.5489 117.925 53.8205 118.158 54.1524C118.391 54.4843 118.508 54.9287 118.508 55.4837C118.508 55.9802 118.414 56.4027 118.228 56.752C118.041 57.1013 117.79 57.3811 117.472 57.5914C117.154 57.8017 116.794 57.9553 116.392 58.0522C115.989 58.1491 115.568 58.1976 115.127 58.1976C114.686 58.1976 114.237 58.151 113.78 58.0577C113.323 57.9644 112.884 57.8355 112.465 57.67C112.046 57.5045 111.659 57.3033 111.303 57.0665L112.167 55.3512C112.227 55.4106 112.349 55.4975 112.536 55.6117C112.722 55.726 112.953 55.8449 113.228 55.9674C113.503 56.09 113.81 56.1979 114.149 56.2911C114.487 56.3844 114.831 56.431 115.177 56.431C115.584 56.431 115.889 56.367 116.092 56.2372C116.295 56.1083 116.396 55.919 116.396 55.6694C116.396 55.4334 116.301 55.246 116.11 55.107C115.92 54.968 115.655 54.8455 115.316 54.7403C114.977 54.6352 114.588 54.5191 114.148 54.3929C113.597 54.2329 113.137 54.0473 112.769 53.8369C112.4 53.6266 112.125 53.3697 111.943 53.0661C111.761 52.7625 111.67 52.384 111.67 51.9286C111.67 51.305 111.82 50.7811 112.121 50.3559C112.422 49.9307 112.826 49.6061 113.334 49.383C113.842 49.1599 114.397 49.0483 114.998 49.0483C115.422 49.0483 115.828 49.0968 116.218 49.1946C116.608 49.2925 116.971 49.4196 117.311 49.5759C117.649 49.7332 117.95 49.8868 118.213 50.0395L117.349 51.6653L117.351 51.6662Z" fill="black"/>
<path d="M40.599 43.4481C37.0832 43.4481 34.3136 42.4002 32.2901 40.3017C30.2656 38.2041 29.2534 35.4262 29.2534 31.9699C29.2534 28.5135 30.2729 25.6991 32.312 23.6161C34.3511 21.5332 37.1125 20.4917 40.599 20.4917C44.0855 20.4917 46.7884 21.5332 48.7983 23.6161C50.8081 25.6991 51.813 28.4843 51.813 31.9699C51.813 35.4555 50.7998 38.2041 48.7772 40.3017C46.7528 42.3993 44.0279 43.4481 40.5999 43.4481H40.599ZM40.599 38.0853C43.7609 38.0853 45.341 36.0462 45.341 31.969C45.341 27.8918 43.76 25.9423 40.599 25.9423C37.438 25.9423 35.8571 27.9521 35.8571 31.969C35.8571 35.9858 37.4371 38.0853 40.599 38.0853Z" fill="white"/>
<path d="M73.4409 42.8721H69.1222C68.7794 42.8721 68.4804 42.6444 68.3816 42.3152C68.2591 41.9083 68.1786 41.4731 68.1384 41.0113C66.8674 42.6362 64.6957 43.4481 61.6234 43.4481C56.8074 43.4481 54.3989 41.3506 54.3989 37.1554C54.3989 35.7966 54.6348 34.6518 55.1076 33.721C55.5803 32.7901 56.3264 32.0586 57.346 31.5274C58.3655 30.9952 59.3914 30.5966 60.4256 30.3314C61.4598 30.0653 62.8341 29.7992 64.5476 29.534C65.7875 29.3567 66.6297 29.1125 67.074 28.8025C67.5166 28.4926 67.7388 27.9979 67.7388 27.3176C67.7388 26.7269 67.4352 26.2615 66.8299 25.9213C66.2246 25.5821 65.4483 25.412 64.5028 25.412C62.5835 25.412 61.425 26.1371 61.0263 27.5864C60.934 27.9229 60.6322 28.1597 60.2839 28.1597H55.9195C55.4642 28.1597 55.1112 27.7656 55.1524 27.3121C55.573 22.7658 58.7934 20.4927 64.8128 20.4927C68.1813 20.4927 70.5889 21.2095 72.0373 22.6424C73.4838 24.0761 74.2089 26.2249 74.2089 29.0906V42.104C74.2089 42.5292 73.8642 42.8739 73.439 42.8739L73.4409 42.8721ZM67.7845 34.4964L67.8284 32.6347C67.4142 33.0187 66.3508 33.3882 64.6372 33.7429C63.1303 34.0684 62.0962 34.4598 61.5347 34.9179C60.9733 35.376 60.6935 36.0033 60.6935 36.8015C60.6935 38.1905 61.4762 38.8845 63.0425 38.8845C64.5193 38.8845 65.6723 38.4566 66.4989 37.5989C67.3255 36.7421 67.7543 35.7079 67.7845 34.4964Z" fill="white"/>
<path d="M97.2543 28.8675H92.2572C91.9152 28.8675 91.6153 28.6416 91.5202 28.3134C91.3209 27.6257 90.9624 27.0652 90.4458 26.6291C89.7957 26.0832 88.9974 25.8089 88.0529 25.8089C85.4524 25.8089 84.153 27.73 84.153 31.5704C84.153 33.6387 84.5142 35.2416 85.2384 36.3791C85.9626 37.5166 86.8413 38.0853 87.8755 38.0853C88.9096 38.0853 89.7664 37.8192 90.4467 37.288C90.9844 36.8664 91.3382 36.2968 91.5056 35.579C91.5869 35.2306 91.896 34.9837 92.2535 34.9837H97.1646C97.652 34.9837 98.0187 35.4327 97.9199 35.91C97.4856 38.0012 96.4423 39.7312 94.79 41.1C92.8991 42.6663 90.6086 43.4491 87.9203 43.4491C84.8471 43.4491 82.3956 42.4451 80.5641 40.4353C78.7317 38.4264 77.8164 35.5159 77.8164 31.7048C77.8164 27.8937 78.7253 25.1094 80.5422 23.2623C82.359 21.4162 84.8782 20.4927 88.0986 20.4927C90.9935 20.4927 93.3416 21.2461 95.1448 22.753C96.7331 24.0816 97.6913 25.8244 98.0178 27.9796C98.0882 28.4469 97.7288 28.8684 97.2561 28.8684L97.2543 28.8675Z" fill="white"/>
<path d="M120.703 42.8716H115.771C115.346 42.8716 115.001 42.5269 115.001 42.1017V29.2209C115.001 27.8913 114.736 26.9541 114.203 26.4073C113.672 25.8605 112.829 25.5871 111.677 25.5871C110.464 25.5871 109.527 25.9565 108.862 26.6953C108.198 27.4342 107.865 28.4391 107.865 29.7091V42.1017C107.865 42.5269 107.52 42.8716 107.095 42.8716H102.207C101.782 42.8716 101.438 42.5269 101.438 42.1017V11.7562C101.438 11.331 101.782 10.9863 102.207 10.9863H107.095C107.52 10.9863 107.865 11.331 107.865 11.7562V23.6377C108.957 21.5401 110.982 20.4913 113.937 20.4913C116.153 20.4913 117.962 21.1195 119.366 22.3749C120.769 23.6313 121.471 25.2634 121.471 27.2723V42.1026C121.471 42.5278 121.126 42.8725 120.701 42.8725L120.703 42.8716Z" fill="white"/>
<path d="M13.8411 37.9096C9.43924 37.9096 7.23924 34.6444 7.23924 28.1139C7.23924 21.5834 9.54256 18.4087 14.1519 18.4087C15.5692 18.4087 16.81 18.8156 17.8753 19.6275C18.8052 20.338 19.4645 21.3146 19.8522 22.5572C19.9537 22.8818 20.2481 23.1058 20.5882 23.1058H25.995C26.4714 23.1058 26.8335 22.677 26.7548 22.2061C26.3095 19.5343 25.0486 17.2931 22.972 15.4827C20.6669 13.4747 17.7134 12.4707 14.109 12.4707C9.85436 12.4707 6.48579 13.9026 4.00509 16.7692C1.52255 19.6339 0.281738 23.5484 0.281738 28.5116C0.281738 33.4749 1.56004 37.2065 4.11481 39.881C6.67141 42.5537 9.97232 43.8906 14.0203 43.8906C17.4181 43.8906 20.2536 42.8866 22.5295 40.8759C24.5914 39.0562 25.973 36.6661 26.6762 33.7053C26.7905 33.2253 26.4183 32.7653 25.9246 32.7653H20.591C20.2499 32.7653 19.9509 32.9912 19.854 33.3185C18.9451 36.3771 16.9417 37.9078 13.8429 37.9078L13.8411 37.9096Z" fill="#F2BD6C"/>
</svg>
